<?xml version="1.0" encoding="UTF-8"?>
<!DOCTYPE svg PUBLIC "-//W3C//DTD SVG 1.1//EN" "http://www.w3.org/Graphics/SVG/1.1/DTD/svg11.dtd">
<!-- Creator: CorelDRAW 2018 -->
<svg xmlns="http://www.w3.org/2000/svg" xml:space="preserve" width="0.891035in" height="1.06154in" version="1.1" style="shape-rendering:geometricPrecision; text-rendering:geometricPrecision; image-rendering:optimizeQuality; fill-rule:evenodd; clip-rule:evenodd"
viewBox="0 0 1160.94 1383.09"
 xmlns:xlink="http://www.w3.org/1999/xlink">
 <defs>
  <style type="text/css">
   <![CDATA[
    .fil0 {fill:#010101}
   ]]>
  </style>
 </defs>
 <g id="Layer_x0020_1">
  <metadata id="CorelCorpID_0Corel-Layer"/>
  <g>
   <path class="fil0" d="M1045.21 215.66c40.25,-2.89 78.34,-17.09 115.73,-31.24 -1.18,239.46 -1.74,478.91 -2.56,718.36 -86.35,27.18 -181.11,28.53 -267.23,-0.23 -100.35,-32.12 -184.78,-97.14 -273.11,-152.3 -22.33,-13.99 -45.03,-28.58 -70.97,-34.96 -42.16,-10.74 -86.36,-9.78 -129.33,-4.92 -49.01,5.8 -97.25,17.06 -144.55,31.06 -57.66,17.24 -114.18,38.45 -168.13,65.22 0.6,-241.74 1.24,-483.48 1.95,-725.23 98.33,-37.59 200.32,-68.24 305.46,-78.33 65.46,-6.16 132.63,-4.04 195.89,15.16 34.7,10.07 66.76,27.25 97.22,46.35 64.88,39.13 126.13,84.42 193.77,118.88 44.72,22.95 95.32,37.06 145.87,32.19l0 0zm-79.02 34.49c-0.33,33.08 -0.12,66.17 -0.24,99.26 31.39,4.82 63.37,6.23 94.97,2.71 20.47,-2.46 40.6,-7.04 60.27,-13.15 -0.01,-32.8 0.35,-65.62 -0.04,-98.45 -49.95,15.39 -103.57,20.64 -154.97,9.63l0 0zm-335.05 -181.65c-0.61,43.37 -0.03,86.74 -0.59,130.1 -39.08,-19.83 -78.3,-42.27 -122.31,-48.58 -14.18,-2.44 -28.63,-2.09 -42.77,-4.68 -1.4,2.65 -2.71,5.36 -4,8.08 2.05,34.33 0.34,68.78 1.04,103.16 -0.47,9.2 1.5,18.81 -1.57,27.69 -5.7,2.52 -12.26,1.73 -18.33,2.43 -50.11,3.75 -99.5,13.89 -148.25,25.81 0.1,-47.55 -0.01,-95.11 -0.02,-142.65 42.49,-10.39 85.66,-18.49 129.31,-21.92 13.24,-1.15 26.59,-0.6 39.76,-2.29 -2.47,-35.53 -0.4,-71.23 -1.01,-106.85 -56.76,1.72 -112.95,11.29 -168.22,23.89 -0.5,35.55 -0.35,71.1 -0.56,106.63 -50.17,12.72 -99.69,27.92 -148.42,45.29 0.01,48.26 0.02,96.52 -0.01,144.76 48.62,-17.36 97.81,-33.32 147.82,-46.23 0.15,46.05 -0.3,92.08 -0.42,138.14 -50.12,12.74 -99.5,28.3 -147.96,46.34 0.02,46.35 -0.09,92.67 0.34,138.99 48.74,-17.77 98.11,-34.14 148.52,-46.46 0.06,-46.16 -0.15,-92.29 -0.1,-138.43 55.01,-15.01 111.55,-25.79 168.66,-26.79 0.38,39.05 -0.45,78.06 -0.11,117.11 0.11,5.41 -0.68,10.82 -2.13,16.05 2.47,1.8 4.96,3.58 7.48,5.34 20.42,-1.7 41,-0.53 61.16,2.59 35.73,5.4 68.09,22.63 100.03,38.51 -0.15,-46.03 0.87,-92.05 0.21,-138.08 56.01,30.94 111.1,63.61 167.81,93.35 -0.11,46.06 -0.21,92.17 -0.66,138.26 -55.97,-29 -109.97,-61.54 -165.33,-91.64 -0.38,35 0.03,70.01 -0.75,105.01 24.9,17.33 51.19,32.6 76.26,49.7 29.63,20.2 59.88,39.54 91.24,56.95 0.34,-39.9 0.37,-79.8 0.72,-119.7 52.77,26.76 107.74,50.62 165.97,62.49 1,-45.9 0.27,-91.81 1.06,-137.72 50.99,10.97 104.71,11.67 155.2,-2.34 0.17,-45.99 0.68,-91.98 0.45,-137.94 -50.61,13.52 -104.1,12.54 -155.19,2.06 -0.15,46.07 -0.62,92.12 -0.45,138.2 -58.54,-12.34 -114.1,-35.69 -167.32,-62.52 -0.39,-46.13 -0.27,-92.29 0.63,-138.39 53.11,26.84 108.4,50.73 167.01,62.57 0.14,-45.47 0.27,-90.98 0.04,-136.48 -58.52,-9.57 -113.93,-32.01 -167.18,-57.45 -0.74,-40.14 0.24,-80.27 0.22,-120.41 -44.18,-29.01 -88.12,-58.47 -133.72,-85.24 -10.83,-6.28 -22.22,-11.47 -33.56,-16.7l0 0zm334.69 693.43c-0.58,39.88 -1.12,79.78 -0.41,119.65 51.36,7.38 103.94,4.78 154.38,-7.38 -0.47,-38.23 0.26,-76.47 -0.37,-114.67 -50.05,13.42 -103.07,12.75 -153.6,2.4l0 0zm-510.4 -198.84c-55.02,4 -109.53,13.73 -162.85,27.84 0.36,35.23 -0.25,70.51 -0.15,105.75 54.93,-14.27 111.11,-24.66 167.89,-27.21 1.8,-33.78 0.11,-67.84 3.65,-101.5 -2.83,-1.68 -5.69,-3.3 -8.54,-4.87zm-412.77 -558.88c15,3.18 25.42,17.94 24.78,33.01 -0.9,438.06 -1.64,876.13 -2.59,1314.2 0.43,18.26 -17.12,33.39 -35.03,31.5 -18.01,-0.94 -31.23,-18.74 -29.71,-36.17 0.87,-436.56 1.67,-873.12 2.55,-1309.63 -1.8,-21.09 19.94,-38.12 40,-32.91zm587.25 194.1c55.75,31.09 110.5,64.04 167.94,92.01 -0.24,43.43 -0.04,86.84 -0.36,130.27 -56.73,-28.26 -110.33,-62.25 -166.72,-91.15 -3.23,45.49 0.07,91.41 -2.33,137.04 -30.03,-15.82 -60.89,-31.4 -94.49,-37.97 -23.97,-4.53 -48.47,-5.75 -72.83,-5.26 0.21,-44.28 0.31,-88.57 0.57,-132.81 0.42,-0.89 1.27,-2.69 1.69,-3.58 2.89,-0.86 5.83,-1.47 8.86,-1.85 38.76,-1.11 77.94,5.56 113.37,21.67 14.69,5.31 27.47,15.35 42.52,19.35 0.43,-0.77 1.27,-2.29 1.7,-3.07 -0.29,-41.55 0.07,-83.11 0.07,-124.65z"/>
  </g>
 </g>
</svg>
